<svg xmlns="http://www.w3.org/2000/svg" width="352" height="352" viewBox="0 0 352 352">
<g>
<path d="M 328.50 352.00 L 77.88 352.00 L 78.51 347.25 C79.19,342.24 83.23,329.56 85.76,324.50 C91.67,312.73 105.03,297.78 116.24,290.39 C119.94,287.95 123.69,285.67 124.57,285.33 C125.85,284.84 125.91,284.56 124.83,283.88 C123.79,283.21 123.85,283.03 125.12,283.02 C127.90,282.99 135.46,278.22 137.85,274.99 C141.29,270.34 142.67,262.24 141.22,255.32 C139.88,248.90 136.91,245.16 131.06,242.53 C127.34,240.85 127.16,240.87 121.79,243.41 C118.77,244.83 116.01,246.00 115.65,246.00 C115.29,246.00 115.00,244.74 115.00,243.20 C115.00,239.77 119.82,234.80 125.39,232.48 C128.97,230.99 129.84,230.99 136.54,232.48 C142.79,233.87 143.89,234.44 144.42,236.55 C144.76,237.90 145.39,239.00 145.83,239.00 C146.27,239.00 147.50,239.80 148.56,240.78 C160.82,252.06 171.47,259.47 180.00,262.66 C194.08,267.93 199.41,269.14 208.40,269.12 C215.75,269.09 218.00,270.02 218.00,273.09 C218.00,275.85 223.68,281.77 227.04,282.51 C228.67,282.87 230.00,283.50 230.00,283.92 C230.00,284.34 231.07,285.17 232.38,285.76 C233.69,286.36 235.60,288.54 236.63,290.60 C237.66,292.66 239.47,294.97 240.65,295.73 C242.70,297.04 242.93,296.83 245.49,291.31 C246.96,288.11 248.64,284.62 249.22,283.55 C249.79,282.48 250.47,278.88 250.72,275.55 C251.14,270.05 250.90,269.08 248.07,264.87 C244.56,259.62 238.91,256.96 226.63,254.74 L 219.77 253.50 L 221.67 251.16 C226.03,245.78 251.95,247.17 267.23,253.60 C282.34,259.95 288.52,263.73 294.84,270.48 C305.92,282.33 310.11,291.45 311.86,307.56 C312.80,316.22 312.68,318.89 310.92,328.72 C309.81,334.90 308.03,342.51 306.95,345.64 C305.88,348.76 305.00,351.47 305.00,351.66 C305.00,351.85 315.58,352.00 328.50,352.00 ZM 235.62 219.43 C233.48,222.23 232.21,222.99 229.70,222.97 C223.61,222.91 219.98,219.57 220.03,214.06 C220.05,211.47 220.72,210.02 222.47,208.75 C227.07,205.40 229.39,205.05 233.75,207.00 C236.00,208.01 237.99,208.67 238.18,208.48 C238.37,208.29 238.49,209.88 238.43,212.00 C238.37,214.56 237.42,217.08 235.62,219.43 ZM 170.28 124.85 C168.09,128.71 167.27,128.78 165.82,125.25 C163.06,118.51 163.10,115.82 166.00,114.35 C167.38,113.65 169.29,112.11 170.25,110.93 C172.48,108.19 174.55,108.98 175.33,112.89 C175.76,115.07 176.66,116.13 178.47,116.58 C181.38,117.31 181.63,118.89 179.47,123.05 C177.65,126.57 177.30,126.63 174.35,123.86 L 172.07 121.72 ZM 159.25 165.66 C157.74,165.74 153.57,166.13 150.00,166.52 C144.26,167.15 143.21,166.99 141.00,165.14 C138.93,163.40 138.75,162.88 139.94,162.09 C141.00,161.40 141.67,161.72 142.47,163.32 C143.71,165.82 148.38,166.76 150.56,164.95 C151.35,164.29 152.00,162.70 152.00,161.40 C152.00,159.29 152.26,159.15 154.56,160.02 C157.29,161.06 161.92,164.17 161.97,165.00 C161.99,165.27 160.76,165.57 159.25,165.66 ZM 202.92 165.74 C201.59,166.41 198.70,166.96 196.50,166.95 C192.83,166.94 192.65,166.82 194.38,165.52 C195.41,164.74 196.25,162.95 196.25,161.55 C196.25,158.55 196.67,158.48 202.02,160.63 C206.44,162.39 206.69,163.81 202.92,165.74 ZM 222.41 215.49 C223.06,218.11 224.50,218.60 226.94,217.06 C228.05,216.35 228.11,215.84 227.19,214.73 C226.55,213.95 226.34,213.00 226.73,212.60 C227.12,212.21 226.78,211.47 225.97,210.96 C224.97,210.33 224.90,210.03 225.75,210.02 C226.44,210.01 227.00,209.55 227.00,209.00 C227.00,207.17 225.07,207.97 223.41,210.49 C222.39,212.05 222.01,213.92 222.41,215.49 ZM 228.50 221.21 C231.30,221.78 234.85,220.06 235.57,217.77 C235.91,216.71 236.03,215.70 235.84,215.53 C235.65,215.35 233.09,216.10 230.16,217.21 C224.95,219.16 224.44,220.39 228.50,221.21 ZM 187.88 164.22 C189.06,165.76 188.88,165.91 186.17,165.72 C183.36,165.51 183.26,165.38 184.73,163.74 C185.61,162.78 186.38,162.10 186.44,162.24 C186.51,162.38 187.16,163.27 187.88,164.22 ZM 229.34 117.63 C228.69,117.28 227.96,117.55 227.70,118.24 C227.38,119.09 226.99,118.92 226.49,117.71 C225.41,115.08 226.78,114.33 228.77,116.45 C229.72,117.46 229.98,117.99 229.34,117.63 ZM 251.93 88.19 C251.97,89.67 251.55,91.16 251.00,91.50 C249.81,92.24 249.81,90.28 251.00,87.50 C251.77,85.71 251.87,85.79 251.93,88.19 Z" fill="rgb(220,221,216)"/>
<path d="M 137.97 232.80 C140.96,233.49 143.35,234.00 143.56,234.00 C145.06,234.00 143.37,231.09 139.25,226.57 C133.23,219.96 130.49,214.41 127.59,202.95 C125.75,195.66 124.82,193.59 122.95,192.66 C118.68,190.53 116.64,185.44 116.18,175.78 C115.82,168.31 116.03,166.62 117.53,164.97 C118.51,163.88 119.96,163.00 120.76,163.00 C121.76,163.00 121.98,162.45 121.47,161.25 C121.06,160.29 119.65,155.23 118.33,150.00 C116.30,141.96 115.97,138.54 116.21,127.75 C116.37,120.74 116.41,115.00 116.30,115.00 C116.19,115.00 114.98,115.51 113.62,116.13 C109.78,117.88 106.51,116.43 102.63,111.26 C100.66,108.64 97.61,104.80 95.83,102.72 C92.37,98.67 91.87,95.63 91.61,76.82 C91.48,67.88 93.42,64.17 99.07,62.55 C100.98,62.00 104.52,59.41 107.22,56.57 C111.93,51.64 112.10,51.56 118.91,51.18 C127.19,50.71 131.99,52.12 136.88,56.45 C138.87,58.21 143.10,60.69 146.28,61.95 C153.01,64.63 155.00,66.98 155.00,72.23 L 155.00 76.02 L 158.81 75.41 C160.91,75.08 164.31,75.27 166.36,75.83 C168.47,76.42 173.99,76.61 179.05,76.28 L 188.00 75.70 L 188.00 72.07 C188.00,66.99 190.04,64.62 196.72,61.95 C199.90,60.67 204.25,58.15 206.40,56.34 C211.62,51.94 215.84,50.71 224.09,51.18 C230.94,51.56 231.05,51.61 235.98,56.78 C238.72,59.65 241.62,62.00 242.43,62.00 C245.65,62.00 248.89,64.42 250.53,68.06 C251.98,71.28 252.17,73.88 251.71,84.36 C251.68,85.01 251.65,85.66 251.61,86.30 C251.48,86.43 251.28,86.84 251.00,87.50 C249.81,90.28 249.81,92.24 251.00,91.50 C251.08,91.45 251.16,91.37 251.24,91.27 C250.87,95.23 250.38,98.33 249.94,99.16 C248.84,101.28 244.52,106.54 237.48,114.36 C235.46,116.60 234.27,117.12 231.90,116.77 C230.81,116.61 229.93,116.66 229.23,116.97 C229.11,116.81 228.95,116.64 228.77,116.45 C226.78,114.33 225.41,115.08 226.49,117.71 C226.99,118.92 227.38,119.09 227.70,118.24 C227.83,117.89 228.09,117.64 228.40,117.54 C227.14,118.83 226.90,121.68 227.41,126.66 C228.14,133.83 226.67,147.83 224.33,155.92 C222.95,160.67 222.94,161.48 224.21,162.42 C230.45,167.02 229.62,186.78 222.95,192.39 C220.65,194.33 219.89,196.23 218.52,203.53 C216.83,212.54 214.61,218.05 210.36,223.71 C208.69,225.94 207.68,229.08 207.07,233.96 C205.67,245.14 207.39,257.07 209.86,253.28 C210.99,251.54 220.25,249.12 229.56,248.12 C235.90,247.44 239.32,247.44 245.79,248.41 C234.63,247.14 224.28,247.94 221.67,251.16 L 219.77 253.50 L 226.63 254.74 C232.67,255.83 237.11,257.03 240.48,258.59 C240.09,258.43 239.67,258.28 239.23,258.11 C230.67,254.95 223.35,253.88 215.26,254.62 C211.29,254.98 209.27,255.12 208.47,256.18 C207.65,257.27 208.09,259.31 208.99,263.50 C209.02,263.65 209.05,263.80 209.08,263.95 C210.07,268.55 210.41,269.00 212.96,269.00 C214.66,269.00 215.83,269.38 216.70,270.33 C215.33,269.43 212.77,269.10 208.40,269.12 C199.41,269.14 194.08,267.93 180.00,262.66 C171.47,259.47 160.82,252.06 148.56,240.78 C147.50,239.80 146.27,239.00 145.83,239.00 C145.39,239.00 144.76,237.90 144.42,236.55 C143.94,234.61 142.97,233.97 137.97,232.80 ZM 77.88 352.00 L 46.00 352.00 L 46.10 347.25 C46.15,344.64 46.13,340.92 46.05,339.00 C45.82,333.16 47.68,322.60 50.67,312.88 C53.04,305.17 54.30,302.77 58.40,298.27 C66.38,289.51 68.62,288.75 89.00,287.92 C105.01,287.27 116.35,285.98 124.32,283.51 C124.44,283.62 124.61,283.73 124.83,283.88 C125.91,284.56 125.85,284.84 124.57,285.33 C123.69,285.67 119.94,287.95 116.24,290.39 C105.03,297.78 91.67,312.73 85.76,324.50 C83.23,329.56 79.19,342.24 78.51,347.25 ZM 170.28 124.85 L 172.07 121.72 L 174.35 123.86 C177.30,126.63 177.65,126.57 179.47,123.05 C181.63,118.89 181.38,117.31 178.47,116.58 C176.66,116.13 175.76,115.07 175.33,112.89 C174.55,108.98 172.48,108.19 170.25,110.93 C169.29,112.11 167.38,113.65 166.00,114.35 C163.10,115.82 163.06,118.51 165.82,125.25 C167.27,128.78 168.09,128.71 170.28,124.85 ZM 232.05 283.91 C236.15,284.96 241.30,285.87 243.51,285.91 C247.24,285.99 249.04,284.84 249.99,280.93 C249.74,282.13 249.47,283.09 249.22,283.55 C248.64,284.62 246.96,288.11 245.49,291.31 C242.93,296.83 242.70,297.04 240.65,295.73 C239.47,294.97 237.66,292.66 236.63,290.60 C235.60,288.54 233.69,286.36 232.38,285.76 C231.07,285.17 230.00,284.34 230.00,283.92 C230.00,283.50 228.67,282.87 227.04,282.51 C225.82,282.24 224.30,281.29 222.85,280.06 C225.12,281.63 228.19,282.91 232.05,283.91 ZM 159.25 165.66 C160.76,165.57 161.99,165.27 161.97,165.00 C161.92,164.17 157.29,161.06 154.56,160.02 C152.26,159.15 152.00,159.29 152.00,161.40 C152.00,162.70 151.35,164.29 150.56,164.95 C148.38,166.76 143.71,165.82 142.47,163.32 C141.67,161.72 141.00,161.40 139.94,162.09 C138.75,162.88 138.93,163.40 141.00,165.14 C143.21,166.99 144.26,167.15 150.00,166.52 C153.57,166.13 157.74,165.74 159.25,165.66 ZM 202.92 165.74 C206.69,163.81 206.44,162.39 202.02,160.63 C196.67,158.48 196.25,158.55 196.25,161.55 C196.25,162.95 195.41,164.74 194.38,165.52 C192.65,166.82 192.83,166.94 196.50,166.95 C198.70,166.96 201.59,166.41 202.92,165.74 ZM 118.00 219.54 C118.00,219.79 116.45,220.00 114.56,220.00 C110.62,220.00 106.97,216.35 109.27,214.72 C110.24,214.03 110.24,213.74 109.25,213.34 C107.46,212.61 107.71,210.57 109.83,208.65 C112.51,206.23 114.29,206.52 113.41,209.25 C113.01,210.49 112.68,212.06 112.68,212.75 C112.67,213.44 112.19,214.00 111.60,214.00 C111.02,214.00 112.22,215.14 114.27,216.54 C116.32,217.93 118.00,219.28 118.00,219.54 ZM 222.41 215.49 C222.01,213.92 222.39,212.05 223.41,210.49 C225.07,207.97 227.00,207.17 227.00,209.00 C227.00,209.55 226.44,210.01 225.75,210.02 C224.90,210.03 224.97,210.33 225.97,210.96 C226.78,211.47 227.12,212.21 226.73,212.60 C226.34,213.00 226.55,213.95 227.19,214.73 C228.11,215.84 228.05,216.35 226.94,217.06 C224.50,218.60 223.06,218.11 222.41,215.49 ZM 228.50 221.21 C224.44,220.39 224.95,219.16 230.16,217.21 C233.09,216.10 235.65,215.35 235.84,215.53 C236.03,215.70 235.91,216.71 235.57,217.77 C234.85,220.06 231.30,221.78 228.50,221.21 ZM 309.84 334.23 C309.14,338.51 308.55,342.78 308.33,345.25 L 307.75 351.82 C305.99,351.77 305.00,351.71 305.00,351.66 C305.00,351.47 305.88,348.76 306.95,345.64 C307.72,343.41 308.85,338.88 309.84,334.23 ZM 187.88 164.22 C187.16,163.27 186.51,162.38 186.44,162.24 C186.38,162.10 185.61,162.78 184.73,163.74 C183.26,165.38 183.36,165.51 186.17,165.72 C188.88,165.91 189.06,165.76 187.88,164.22 ZM 268.17 253.99 C273.39,255.94 278.28,258.27 282.64,260.89 C278.89,258.75 274.28,256.58 268.17,253.99 ZM 139.89 250.99 C138.08,247.27 135.09,244.34 131.06,242.53 C135.45,244.51 138.21,247.10 139.89,250.99 ZM 136.57 276.42 C138.97,273.73 140.43,270.45 141.27,266.46 C141.33,266.18 141.38,265.90 141.43,265.62 C140.86,269.24 139.63,272.58 137.85,274.99 C137.52,275.44 137.08,275.92 136.57,276.42 ZM 120.96 234.97 C122.94,233.43 124.75,232.45 126.71,231.96 C126.30,232.10 125.87,232.28 125.39,232.48 C123.82,233.13 122.31,234.00 120.96,234.97 ZM 115.00 243.17 C115.00,243.15 115.00,243.13 115.00,243.12 C115.00,241.34 115.78,239.79 117.74,237.81 C116.06,239.64 115.01,241.57 115.00,243.17 ZM 217.99 272.82 C218.11,273.19 218.22,273.59 218.33,274.03 C218.42,274.43 218.55,274.83 218.70,275.22 C218.26,274.42 218.00,273.68 218.00,273.09 C218.00,273.00 218.00,272.91 217.99,272.82 ZM 312.05 309.38 C312.42,313.10 312.55,315.64 312.36,318.37 C312.53,315.58 312.41,313.02 312.05,309.38 ZM 134.89 232.12 C135.39,232.22 135.92,232.33 136.46,232.46 C136.66,232.50 136.86,232.55 137.06,232.59 C136.89,232.55 136.72,232.52 136.54,232.48 C135.94,232.34 135.40,232.22 134.89,232.12 Z" fill="rgb(173,106,91)"/>
<path d="M 0.00 176.00 L 0.00 0.00 L 176.00 0.00 L 352.00 0.00 L 352.00 176.00 L 352.00 352.00 L 329.87 352.00 L 307.73 352.00 L 308.33 345.25 C308.66,341.54 309.83,333.77 310.93,328.00 C312.69,318.79 312.80,316.28 311.86,307.57 C310.10,291.45 305.92,282.33 294.84,270.48 C285.39,260.38 268.15,252.18 249.78,249.05 C240.49,247.46 237.09,247.31 229.56,248.12 C220.25,249.12 210.99,251.54 209.86,253.28 C207.39,257.07 205.67,245.14 207.07,233.96 C207.68,229.08 208.69,225.94 210.36,223.71 C214.61,218.05 216.83,212.54 218.52,203.53 C219.89,196.23 220.65,194.33 222.95,192.39 C229.62,186.78 230.45,167.02 224.21,162.42 C222.94,161.48 222.95,160.67 224.33,155.92 C226.67,147.83 228.14,133.83 227.41,126.66 C226.58,118.64 227.71,116.16 231.90,116.77 C234.27,117.12 235.46,116.60 237.48,114.36 C244.52,106.54 248.84,101.28 249.94,99.16 C250.61,97.88 251.41,91.22 251.71,84.36 C252.17,73.88 251.98,71.28 250.53,68.06 C248.89,64.42 245.65,62.00 242.43,62.00 C241.62,62.00 238.72,59.65 235.98,56.78 C231.05,51.61 230.94,51.56 224.09,51.18 C215.84,50.71 211.62,51.94 206.40,56.34 C204.25,58.15 199.90,60.67 196.72,61.95 C190.04,64.62 188.00,66.99 188.00,72.07 L 188.00 75.70 L 179.05 76.28 C173.99,76.61 168.47,76.42 166.36,75.83 C164.31,75.27 160.91,75.08 158.81,75.41 L 155.00 76.02 L 155.00 72.23 C155.00,66.98 153.01,64.63 146.28,61.95 C143.10,60.69 138.87,58.21 136.88,56.45 C131.99,52.12 127.19,50.71 118.91,51.18 C112.10,51.56 111.93,51.64 107.22,56.57 C104.52,59.41 100.98,62.00 99.07,62.55 C93.42,64.17 91.48,67.88 91.61,76.82 C91.87,95.63 92.37,98.67 95.83,102.72 C97.61,104.80 100.66,108.64 102.63,111.26 C106.51,116.43 109.78,117.88 113.62,116.13 C114.98,115.51 116.19,115.00 116.30,115.00 C116.41,115.00 116.37,120.74 116.21,127.75 C115.97,138.54 116.30,141.96 118.33,150.00 C119.65,155.23 121.06,160.29 121.47,161.25 C121.98,162.45 121.76,163.00 120.76,163.00 C119.96,163.00 118.51,163.88 117.53,164.97 C116.03,166.62 115.82,168.31 116.18,175.78 C116.64,185.44 118.68,190.53 122.95,192.66 C124.82,193.59 125.75,195.66 127.59,202.95 C130.49,214.41 133.23,219.96 139.25,226.57 C143.37,231.09 145.06,234.00 143.56,234.00 C143.32,234.00 140.13,233.30 136.46,232.46 C128.41,230.59 124.67,231.50 118.87,236.74 C116.08,239.26 115.00,241.04 115.00,243.12 C115.00,244.70 115.29,246.00 115.65,246.00 C116.01,246.00 118.77,244.83 121.79,243.41 C127.16,240.87 127.34,240.85 131.06,242.53 C139.72,246.43 143.57,255.47 141.27,266.46 C138.12,281.47 126.09,286.41 89.00,287.92 C68.62,288.75 66.38,289.51 58.40,298.27 C54.30,302.77 53.04,305.17 50.67,312.88 C47.68,322.60 45.82,333.16 46.05,339.00 C46.13,340.92 46.15,344.64 46.10,347.25 L 46.00 352.00 L 23.00 352.00 L 0.00 352.00 L 0.00 176.00 ZM 235.62 219.43 C237.42,217.08 238.37,214.56 238.43,212.00 C238.49,209.88 238.37,208.29 238.18,208.48 C237.99,208.67 236.00,208.01 233.75,207.00 C229.39,205.05 227.07,205.40 222.47,208.75 C220.72,210.02 220.05,211.47 220.03,214.06 C219.98,219.57 223.61,222.91 229.70,222.97 C232.21,222.99 233.48,222.23 235.62,219.43 ZM 118.00 219.54 C118.00,219.28 116.32,217.93 114.27,216.54 C112.22,215.14 111.02,214.00 111.60,214.00 C112.19,214.00 112.67,213.44 112.68,212.75 C112.68,212.06 113.01,210.49 113.41,209.25 C114.29,206.52 112.51,206.23 109.83,208.65 C107.71,210.57 107.46,212.61 109.25,213.34 C110.24,213.74 110.24,214.03 109.27,214.72 C106.97,216.35 110.62,220.00 114.56,220.00 C116.45,220.00 118.00,219.79 118.00,219.54 ZM 232.05 283.91 C224.02,281.84 219.39,278.50 218.33,274.03 C217.43,270.27 216.07,269.00 212.96,269.00 C210.41,269.00 210.07,268.55 209.08,263.95 C207.20,255.19 207.09,255.36 215.26,254.62 C223.35,253.88 230.67,254.95 239.23,258.11 C243.89,259.83 245.54,261.10 248.07,264.87 C250.90,269.08 251.14,270.05 250.72,275.55 C250.09,283.86 248.58,286.02 243.51,285.91 C241.30,285.87 236.15,284.96 232.05,283.91 Z" fill="rgb(248,222,64)"/>
</g>
</svg>