<svg xmlns="http://www.w3.org/2000/svg" width="1024" height="1024" viewBox="0 0 1024 1024">
<g>
<path d="M 302.93 577.24 C298.84,579.64 292.97,583.01 289.88,584.73 L 284.27 587.87 L 271.88 580.83 C238.84,562.04 217.40,541.48 204.71,516.40 C198.10,503.34 195.83,488.62 198.42,475.53 C202.83,453.15 215.84,439.76 237.42,435.36 C252.34,432.31 263.16,436.16 275.80,449.01 L 282.73 456.04 L 285.27 452.71 C288.65,448.28 302.25,438.96 308.50,436.80 C318.63,433.29 334.75,435.03 345.37,440.78 C361.00,449.25 371.44,470.61 369.60,490.36 C367.66,511.23 359.45,526.31 338.03,548.37 C325.23,561.54 314.12,570.68 302.93,577.24 ZM 675.91 578.43 C669.68,579.29 664.11,579.96 663.54,579.91 C654.23,579.10 650.01,570.70 655.59,564.08 C658.09,561.10 658.44,561.00 666.43,561.00 C667.39,561.00 668.28,561.02 669.09,561.04 C671.74,561.11 673.65,561.16 675.03,560.33 C678.56,558.20 678.59,550.29 678.71,522.13 C678.73,518.77 678.74,515.11 678.76,511.15 C679.01,469.20 678.89,465.22 677.26,462.00 L 675.50 458.50 L 666.67 458.50 C658.24,458.50 657.74,458.37 655.42,455.69 C651.20,450.81 652.47,444.36 658.23,441.38 C660.89,440.01 662.81,439.88 669.96,440.60 C678.44,441.45 687.54,441.50 723.00,440.86 C738.58,440.57 742.53,440.81 748.00,442.35 C777.22,450.55 794.28,477.72 792.67,513.50 C791.23,545.42 776.62,567.66 751.99,575.44 C738.63,579.67 730.11,580.24 707.37,578.44 C689.02,576.99 686.23,576.99 675.91,578.43 ZM 476.50 581.49 C462.40,584.46 443.22,582.63 431.60,577.19 C423.42,573.37 417.63,567.54 413.65,559.15 L 410.50 552.50 L 410.82 509.38 C410.84,507.01 410.85,504.75 410.87,502.59 C411.12,470.34 411.19,462.11 407.55,459.85 C406.06,458.93 403.95,459.00 400.98,458.83 C394.59,458.47 393.49,458.10 391.38,455.65 C389.85,453.88 389.00,451.63 389.00,449.38 C389.00,441.51 393.12,439.30 405.30,440.59 C415.57,441.69 432.54,441.67 445.18,440.56 L 454.86 439.71 L 457.93 442.78 C462.17,447.01 462.18,451.98 457.95,456.20 C454.94,459.21 454.81,459.24 447.20,458.61 C442.97,458.26 438.97,458.33 438.31,458.76 C435.25,460.78 434.79,466.00 434.27,505.00 C433.69,548.85 433.89,550.83 439.53,556.46 C448.68,565.61 471.75,566.43 481.41,557.94 C488.27,551.92 488.39,551.06 488.80,506.64 C489.00,484.72 488.89,465.69 488.56,464.36 C487.27,459.23 484.86,458.09 476.61,458.71 C469.10,459.28 469.06,459.27 466.03,456.04 C462.20,451.93 461.98,447.30 465.42,443.31 C467.82,440.53 467.94,440.50 477.67,440.88 C494.40,441.52 510.14,441.39 518.71,440.53 C525.67,439.84 527.32,439.98 529.51,441.41 C533.17,443.81 534.41,447.63 533.04,452.23 C531.66,456.87 529.27,458.21 521.04,458.93 C515.22,459.44 514.52,459.75 513.89,462.00 C513.51,463.38 513.13,478.90 513.04,496.50 C512.83,540.16 512.12,549.00 508.20,557.38 C502.19,570.23 491.56,578.31 476.50,581.49 ZM 558.08 580.08 C555.73,582.42 554.30,582.99 550.83,582.97 C548.45,582.95 545.60,582.42 544.50,581.79 C540.08,579.26 539.88,578.30 540.52,562.50 C540.88,553.87 540.67,542.93 540.03,536.74 C538.29,519.74 540.53,515.00 550.30,515.00 C554.33,515.00 555.65,515.50 558.08,517.92 C560.89,520.74 561.00,521.19 561.00,530.24 C561.00,542.10 562.82,548.38 567.96,554.21 C574.24,561.36 580.17,563.50 593.50,563.48 C605.17,563.46 609.97,561.99 615.85,556.64 C621.04,551.91 623.80,542.69 622.02,536.06 C619.42,526.40 612.59,522.46 591.00,518.14 C582.47,516.44 572.54,514.14 568.93,513.03 C556.66,509.27 549.17,502.41 544.91,491.05 C541.83,482.83 542.48,469.82 546.39,461.29 C549.90,453.63 558.65,444.97 566.50,441.37 C581.43,434.54 603.01,434.91 616.18,442.24 L 619.85 444.28 L 622.18 441.58 C625.67,437.52 631.65,436.99 635.67,440.38 C639.56,443.65 640.16,446.78 638.96,457.40 C638.32,462.95 638.33,469.87 638.97,477.19 C640.51,494.74 638.45,499.03 628.53,498.97 C619.79,498.91 618.00,496.04 618.00,482.03 C618.00,470.17 616.92,466.96 611.21,461.80 C606.23,457.31 600.89,455.70 591.00,455.73 C579.40,455.76 572.65,459.35 568.89,467.50 C565.39,475.08 566.90,483.83 572.63,489.19 C576.50,492.81 579.10,493.68 596.10,497.05 C622.18,502.21 630.75,505.85 637.79,514.74 C643.65,522.13 645.33,527.38 645.41,538.50 C645.48,548.00 645.30,548.87 641.87,556.00 C633.61,573.18 616.41,582.97 594.50,582.97 C583.13,582.97 574.35,580.62 561.75,574.21 C561.34,574.00 561.00,574.58 561.00,575.49 C561.00,576.41 559.68,578.47 558.08,580.08 ZM 877.50 581.49 C873.65,582.30 866.90,582.94 862.50,582.90 C845.01,582.77 832.69,577.77 820.96,566.04 C808.10,553.20 802.39,539.07 801.33,517.50 C800.32,497.13 803.91,479.38 811.72,466.07 C816.67,457.64 827.05,447.31 834.62,443.28 C851.05,434.53 872.09,434.16 888.18,442.35 L 894.86 445.75 L 896.07 442.83 C897.75,438.78 900.71,437.00 905.77,437.00 C908.95,437.00 910.70,437.61 912.39,439.30 C914.69,441.60 914.69,441.63 914.52,469.05 C914.35,497.50 914.03,499.84 910.04,501.98 C905.10,504.62 895.44,501.97 894.57,497.73 C894.31,496.50 893.93,490.97 893.71,485.43 C893.37,476.65 892.95,474.69 890.44,470.06 C885.20,460.43 876.43,455.80 863.44,455.80 C853.78,455.80 846.97,458.32 840.28,464.37 C827.09,476.28 821.64,506.30 828.06,531.65 C831.66,545.87 838.13,554.97 848.44,560.30 C854.03,563.19 855.28,563.44 864.50,563.47 C875.75,563.50 880.61,561.92 887.36,555.99 C892.89,551.13 895.05,546.09 896.02,535.80 C897.22,522.97 900.51,519.18 909.40,520.34 C915.39,521.12 918.27,524.63 918.79,531.77 C919.68,544.10 914.62,556.48 904.56,566.58 C896.46,574.71 888.28,579.22 877.50,581.49 ZM 707.02 559.72 C710.15,561.30 728.94,561.41 736.20,559.89 C743.23,558.42 752.33,553.52 756.18,549.14 C763.77,540.50 768.28,525.69 768.26,509.49 C768.22,485.24 759.35,468.24 743.45,461.93 C738.07,459.80 735.93,459.57 721.17,459.54 C706.14,459.50 704.73,459.65 703.42,461.44 C702.24,463.05 702.00,471.05 702.01,508.44 C702.03,556.60 702.09,557.22 707.02,559.72 ZM 121.59 578.51 L 120.62 578.65 C113.44,579.73 111.30,580.06 109.29,579.68 C108.34,579.50 107.42,579.17 106.03,578.69 C100.12,576.66 98.04,568.76 102.07,563.63 C104.03,561.15 104.63,561.00 112.92,561.00 C113.96,561.00 114.91,561.03 115.78,561.05 C118.58,561.12 120.58,561.18 122.01,560.30 C125.57,558.13 125.60,550.20 125.71,522.53 C125.73,519.06 125.74,515.27 125.77,511.15 C126.02,469.15 125.90,465.22 124.27,462.00 L 122.50 458.50 L 114.25 458.83 C106.23,459.15 105.93,459.08 103.00,456.16 C99.15,452.31 98.93,447.35 102.42,443.31 C104.83,440.51 104.89,440.50 115.17,440.90 C128.36,441.41 146.64,441.41 159.83,440.90 C170.11,440.50 170.17,440.51 172.58,443.31 C176.07,447.35 175.85,452.31 172.00,456.16 C169.07,459.08 168.77,459.15 160.75,458.83 L 152.50 458.50 L 150.73 462.00 C149.10,465.22 148.98,469.15 149.23,511.15 C149.26,515.27 149.27,519.06 149.29,522.53 C149.40,550.20 149.43,558.13 152.99,560.30 C154.42,561.18 156.42,561.12 159.22,561.05 C160.09,561.03 161.04,561.00 162.08,561.00 C170.37,561.00 170.97,561.15 172.93,563.63 C175.37,566.75 175.58,570.97 173.49,575.01 C171.15,579.54 166.08,580.47 154.06,578.56 C141.83,576.61 134.22,576.60 121.59,578.51 ZM 948.10 579.72 C941.40,584.22 932.04,581.81 928.67,574.72 C926.62,570.40 926.57,567.96 928.44,563.49 C932.85,552.94 949.14,553.80 952.97,564.78 C954.26,568.49 954.26,569.51 952.97,573.22 C952.02,575.93 950.29,578.25 948.10,579.72 ZM 938.57 573.82 C940.38,575.54 940.57,575.54 942.33,573.91 C944.71,571.69 944.12,568.59 941.24,568.18 C939.01,567.86 938.41,566.92 939.66,565.68 C940.02,565.31 940.93,565.53 941.68,566.15 C943.85,567.95 944.55,566.19 942.45,564.20 C940.75,562.58 940.38,562.55 938.78,563.92 C936.31,566.04 936.56,567.84 939.50,569.18 C940.88,569.81 942.00,570.62 942.00,570.99 C942.00,572.48 940.61,572.92 939.32,571.85 C937.14,570.04 936.46,571.82 938.57,573.82 ZM 933.07 575.37 C934.21,576.81 935.90,577.99 936.82,577.98 C938.22,577.96 938.15,577.67 936.37,576.23 C931.26,572.09 931.00,566.76 935.69,562.41 C937.12,561.09 937.76,560.00 937.10,560.00 C936.45,560.00 934.80,561.10 933.45,562.45 C930.29,565.62 930.11,571.60 933.07,575.37 ZM 945.48 575.61 C943.78,576.97 943.12,577.99 943.94,578.00 C947.02,578.01 950.00,573.81 950.00,569.46 C950.00,564.84 947.02,560.00 944.18,560.00 C942.97,560.01 943.33,560.68 945.48,562.39 C947.93,564.36 948.45,565.51 948.45,569.00 C948.45,572.49 947.93,573.64 945.48,575.61 Z" fill="rgb(27,25,100)"/>
<path d="M 0.00 512.00 L 0.00 0.00 L 512.00 0.00 L 1024.00 0.00 L 1024.00 512.00 L 1024.00 1024.00 L 512.00 1024.00 L 0.00 1024.00 L 0.00 512.00 ZM 302.93 577.24 C314.12,570.68 325.23,561.54 338.03,548.37 C359.45,526.31 367.66,511.23 369.60,490.36 C371.44,470.61 361.00,449.25 345.37,440.78 C334.75,435.03 318.63,433.29 308.50,436.80 C302.25,438.96 288.65,448.28 285.27,452.71 L 282.73 456.04 L 275.80 449.01 C263.16,436.16 252.34,432.31 237.42,435.36 C215.84,439.76 202.83,453.15 198.42,475.53 C195.83,488.62 198.10,503.34 204.71,516.40 C217.40,541.48 238.84,562.04 271.88,580.83 L 284.27 587.87 L 289.88 584.73 C292.97,583.01 298.84,579.64 302.93,577.24 ZM 476.50 581.49 C491.56,578.31 502.19,570.23 508.20,557.38 C512.12,549.00 512.83,540.16 513.04,496.50 C513.13,478.90 513.51,463.38 513.89,462.00 C514.52,459.75 515.22,459.44 521.04,458.93 C529.27,458.21 531.66,456.87 533.04,452.23 C534.41,447.63 533.17,443.81 529.51,441.41 C527.32,439.98 525.67,439.84 518.71,440.53 C510.14,441.39 494.40,441.52 477.67,440.88 C467.94,440.50 467.82,440.53 465.42,443.31 C461.98,447.30 462.20,451.93 466.03,456.04 C469.06,459.27 469.10,459.28 476.61,458.71 C484.86,458.09 487.27,459.23 488.56,464.36 C488.89,465.69 489.00,484.72 488.80,506.64 C488.39,551.06 488.27,551.92 481.41,557.94 C471.75,566.43 448.68,565.61 439.53,556.46 C433.89,550.83 433.69,548.85 434.27,505.00 C434.79,466.00 435.25,460.78 438.31,458.76 C438.97,458.33 442.97,458.26 447.20,458.61 C454.81,459.24 454.94,459.21 457.95,456.20 C462.18,451.98 462.17,447.01 457.93,442.78 L 454.86 439.71 L 445.18 440.56 C432.54,441.67 415.57,441.69 405.30,440.59 C393.12,439.30 389.00,441.51 389.00,449.38 C389.00,451.63 389.85,453.88 391.38,455.65 C393.49,458.10 394.59,458.47 400.98,458.83 C411.69,459.43 411.20,456.93 410.82,509.38 L 410.50 552.50 L 413.65 559.15 C417.63,567.54 423.42,573.37 431.60,577.19 C443.22,582.63 462.40,584.46 476.50,581.49 ZM 558.08 580.08 C559.68,578.47 561.00,576.41 561.00,575.49 C561.00,574.58 561.34,574.00 561.75,574.21 C574.35,580.62 583.13,582.97 594.50,582.97 C616.41,582.97 633.61,573.18 641.87,556.00 C645.30,548.87 645.48,548.00 645.41,538.50 C645.33,527.38 643.65,522.13 637.79,514.74 C630.75,505.85 622.18,502.21 596.10,497.05 C579.10,493.68 576.50,492.81 572.63,489.19 C566.90,483.83 565.39,475.08 568.89,467.50 C572.65,459.35 579.40,455.76 591.00,455.73 C600.89,455.70 606.23,457.31 611.21,461.80 C616.92,466.96 618.00,470.17 618.00,482.03 C618.00,496.04 619.79,498.91 628.53,498.97 C638.45,499.03 640.51,494.74 638.97,477.19 C638.33,469.87 638.32,462.95 638.96,457.40 C640.16,446.78 639.56,443.65 635.67,440.38 C631.65,436.99 625.67,437.52 622.18,441.58 L 619.85 444.28 L 616.18 442.24 C603.01,434.91 581.43,434.54 566.50,441.37 C558.65,444.97 549.90,453.63 546.39,461.29 C542.48,469.82 541.83,482.83 544.91,491.05 C549.17,502.41 556.66,509.27 568.93,513.03 C572.54,514.14 582.47,516.44 591.00,518.14 C612.59,522.46 619.42,526.40 622.02,536.06 C623.80,542.69 621.04,551.91 615.85,556.64 C609.97,561.99 605.17,563.46 593.50,563.48 C580.17,563.50 574.24,561.36 567.96,554.21 C562.82,548.38 561.00,542.10 561.00,530.24 C561.00,521.19 560.89,520.74 558.08,517.92 C555.65,515.50 554.33,515.00 550.30,515.00 C540.53,515.00 538.29,519.74 540.03,536.74 C540.67,542.93 540.88,553.87 540.52,562.50 C539.88,578.30 540.08,579.26 544.50,581.79 C545.60,582.42 548.45,582.95 550.83,582.97 C554.30,582.99 555.73,582.42 558.08,580.08 ZM 877.50 581.49 C888.28,579.22 896.46,574.71 904.56,566.58 C914.62,556.48 919.68,544.10 918.79,531.77 C918.27,524.63 915.39,521.12 909.40,520.34 C900.51,519.18 897.22,522.97 896.02,535.80 C895.05,546.09 892.89,551.13 887.36,555.99 C880.61,561.92 875.75,563.50 864.50,563.47 C855.28,563.44 854.03,563.19 848.44,560.30 C838.13,554.97 831.66,545.87 828.06,531.65 C821.64,506.30 827.09,476.28 840.28,464.37 C846.97,458.32 853.78,455.80 863.44,455.80 C876.43,455.80 885.20,460.43 890.44,470.06 C892.95,474.69 893.37,476.65 893.71,485.43 C893.93,490.97 894.31,496.50 894.57,497.73 C895.44,501.97 905.10,504.62 910.04,501.98 C914.03,499.84 914.35,497.50 914.52,469.05 C914.69,441.63 914.69,441.60 912.39,439.30 C910.70,437.61 908.95,437.00 905.77,437.00 C900.71,437.00 897.75,438.78 896.07,442.83 L 894.86 445.75 L 888.18 442.35 C872.09,434.16 851.05,434.53 834.62,443.28 C827.05,447.31 816.67,457.64 811.72,466.07 C803.91,479.38 800.32,497.13 801.33,517.50 C802.39,539.07 808.10,553.20 820.96,566.04 C832.69,577.77 845.01,582.77 862.50,582.90 C866.90,582.94 873.65,582.30 877.50,581.49 ZM 948.10 579.72 C950.29,578.25 952.02,575.93 952.97,573.22 C954.26,569.51 954.26,568.49 952.97,564.78 C949.14,553.80 932.85,552.94 928.44,563.49 C926.57,567.96 926.62,570.40 928.67,574.72 C932.04,581.81 941.40,584.22 948.10,579.72 ZM 121.59 578.51 C134.22,576.60 141.83,576.61 154.06,578.56 C166.08,580.47 171.15,579.54 173.49,575.01 C175.58,570.97 175.37,566.75 172.93,563.63 C170.97,561.15 170.37,561.00 162.08,561.00 C148.41,561.00 149.55,565.43 149.23,511.15 C148.98,469.15 149.10,465.22 150.73,462.00 L 152.50 458.50 L 160.75 458.83 C168.77,459.15 169.07,459.08 172.00,456.16 C175.85,452.31 176.07,447.35 172.58,443.31 C170.17,440.51 170.11,440.50 159.83,440.90 C146.64,441.41 128.36,441.41 115.17,440.90 C104.89,440.50 104.83,440.51 102.42,443.31 C98.93,447.35 99.15,452.31 103.00,456.16 C105.93,459.08 106.23,459.15 114.25,458.83 L 122.50 458.50 L 124.27 462.00 C125.90,465.22 126.02,469.15 125.77,511.15 C125.45,565.43 126.59,561.00 112.92,561.00 C104.63,561.00 104.03,561.15 102.07,563.63 C98.04,568.76 100.12,576.66 106.03,578.69 C110.52,580.24 110.05,580.24 121.59,578.51 ZM 675.91 578.43 C686.23,576.99 689.02,576.99 707.37,578.44 C730.11,580.24 738.63,579.67 751.99,575.44 C776.62,567.66 791.23,545.42 792.67,513.50 C794.28,477.72 777.22,450.55 748.00,442.35 C742.53,440.81 738.58,440.57 723.00,440.86 C687.54,441.50 678.44,441.45 669.96,440.60 C662.81,439.88 660.89,440.01 658.23,441.38 C652.47,444.36 651.20,450.81 655.42,455.69 C657.74,458.37 658.24,458.50 666.67,458.50 L 675.50 458.50 L 677.26 462.00 C678.89,465.22 679.01,469.20 678.76,511.15 C678.45,565.26 679.50,561.00 666.43,561.00 C658.44,561.00 658.09,561.10 655.59,564.08 C650.01,570.70 654.23,579.10 663.54,579.91 C664.11,579.96 669.68,579.29 675.91,578.43 ZM 933.07 575.37 C930.11,571.60 930.29,565.62 933.45,562.45 C934.80,561.10 936.45,560.00 937.10,560.00 C937.76,560.00 937.12,561.09 935.69,562.41 C931.00,566.76 931.26,572.09 936.37,576.23 C938.15,577.67 938.22,577.96 936.82,577.98 C935.90,577.99 934.21,576.81 933.07,575.37 ZM 945.48 575.61 C947.93,573.64 948.45,572.49 948.45,569.00 C948.45,565.51 947.93,564.36 945.48,562.39 C943.33,560.68 942.97,560.01 944.18,560.00 C947.02,560.00 950.00,564.84 950.00,569.46 C950.00,573.81 947.02,578.01 943.94,578.00 C943.12,577.99 943.78,576.97 945.48,575.61 ZM 938.57 573.82 C936.46,571.82 937.14,570.04 939.32,571.85 C940.61,572.92 942.00,572.48 942.00,570.99 C942.00,570.62 940.88,569.81 939.50,569.18 C936.56,567.84 936.31,566.04 938.78,563.92 C940.38,562.55 940.75,562.58 942.45,564.20 C944.55,566.19 943.85,567.95 941.68,566.15 C940.93,565.53 940.02,565.31 939.66,565.68 C938.41,566.92 939.01,567.86 941.24,568.18 C944.12,568.59 944.71,571.69 942.33,573.91 C940.57,575.54 940.38,575.54 938.57,573.82 ZM 707.02 559.72 C702.09,557.22 702.03,556.60 702.01,508.44 C702.00,471.05 702.24,463.05 703.42,461.44 C704.73,459.65 706.14,459.50 721.17,459.54 C735.93,459.57 738.07,459.80 743.45,461.93 C759.35,468.24 768.22,485.24 768.26,509.49 C768.28,525.69 763.77,540.50 756.18,549.14 C752.33,553.52 743.23,558.42 736.20,559.89 C728.94,561.41 710.15,561.30 707.02,559.72 Z" fill="rgb(254,254,254)"/>
</g>
</svg>